# xmcd
#
# Track frame offsets: 
#        150
#        20142
#        44045
#        54650
#        72067
#        94717
#        115854
#        134742
#        145969
#        168969
#        179047
#
# Disc length: 2665 seconds
#
# Revision: 0
# Processed by: cddbd v1.5.2PL0 Copyright (c) Steve Scherf et al.
# Submitted via: ExactAudioCopy v1.0b3
#
DISCID=a90a670b
DTITLE=SUPER BELL"Z - Motor Man Vol. 1 and 2
DYEAR=2001
DGENRE=Metal
TTITLE0=MOTOR MAN(秋葉原~南浦和)
TTITLE1=MOTOR MAN2{TRAFFIC JAM WIDE}(東京~新宿 品川経由) 
TTITLE2=MOTOR MAN3{GROOVE DOOR}
TTITLE3=MOTOR MAN 名古屋 普通犬山行
TTITLE4=MOTOR MAN 名古屋 急行新鵜沼行
TTITLE5=MOTOR MAN 大阪環状線
TTITLE6=MOTOR MAN 阪急神戸線
TTITLE7=MOTOR MAN 阪急京都線
TTITLE8=MOTOR MAN 終電上野発23:54分 
TTITLE9=MOTOR MAN 西部~秩父鉄道
TTITLE10=MOTOR MAN 大阪環状線
EXTD=
EXTT0=
EXTT1=
EXTT2=
EXTT3=
EXTT4=
EXTT5=
EXTT6=
EXTT7=
EXTT8=
EXTT9=
EXTT10=
PLAYORDER=
